<?xml version="1.0" standalone="no"?>
<!DOCTYPE svg PUBLIC "-//W3C//DTD SVG 20010904//EN"
 "http://www.w3.org/TR/2001/REC-SVG-20010904/DTD/svg10.dtd">
<svg version="1.0" xmlns="http://www.w3.org/2000/svg"
 width="512.000000pt" height="512.000000pt" viewBox="0 0 512.000000 512.000000"
 preserveAspectRatio="xMidYMid meet">

<g transform="translate(0.000000,512.000000) scale(0.100000,-0.100000)" stroke="none">
<path d="M2395 4799 c-26 -13 -84 -103 -134 -209 -138 -296 -114 -563 70 -764
35 -37 115 -112 180 -167 64 -54 137 -122 162 -151 167 -198 151 -425 -56
-758 -26 -41 -47 -80 -47 -87 0 -49 56 -91 105 -79 53 13 204 285 246 442 30
112 31 265 2 359 -45 143 -117 234 -315 401 -202 171 -262 262 -275 415 -10
120 41 284 142 448 48 80 47 119 -6 146 -32 17 -46 18 -74 4z"/>
<path d="M3031 4672 c-42 -46 -130 -223 -151 -308 -34 -133 -22 -261 34 -373
34 -66 110 -147 243 -257 121 -101 152 -136 183 -207 58 -130 19 -301 -114
-498 -45 -66 -48 -108 -10 -138 69 -54 126 -5 227 194 98 195 110 367 38 520
-39 84 -96 147 -241 268 -129 108 -151 132 -191 207 -20 38 -24 59 -24 140 0
82 4 105 29 165 16 39 49 102 73 142 49 82 53 114 18 148 -34 35 -79 33 -114
-3z"/>
<path d="M1778 4508 c-44 -36 -125 -187 -159 -298 -31 -99 -32 -247 -1 -331
40 -112 94 -178 247 -304 56 -46 123 -107 148 -135 128 -142 114 -324 -42
-567 -28 -44 -51 -91 -51 -104 0 -34 24 -65 56 -73 46 -12 80 11 129 88 134
208 182 399 140 561 -32 120 -98 208 -254 334 -173 141 -224 210 -237 322 -11
98 26 220 111 358 19 32 35 71 35 85 0 56 -80 97 -122 64z"/>
<path d="M845 2421 c-70 -43 -107 -112 -107 -201 -1 -91 34 -156 105 -191 35
-19 37 -22 37 -69 0 -28 -4 -50 -9 -50 -4 0 -62 25 -127 56 -147 69 -205 78
-274 42 -120 -65 -160 -216 -87 -327 28 -42 61 -61 319 -181 l176 -82 5 -206
c4 -217 11 -260 61 -384 38 -93 86 -166 161 -246 115 -122 221 -189 382 -239
l88 -28 985 0 985 0 88 28 c161 50 270 118 383 240 75 81 123 155 160 245 49
122 56 168 61 383 l5 207 157 72 c262 122 310 149 338 191 73 111 33 262 -87
327 -69 36 -127 27 -274 -42 -65 -31 -123 -56 -127 -56 -5 0 -9 23 -9 50 0 39
4 52 18 57 131 46 168 257 64 366 -58 61 70 57 -1764 57 -1624 0 -1684 -1
-1713 -19z m3368 -148 c14 -23 16 -70 5 -85 -12 -15 -151 -16 -1651 -20 -1281
-4 -1641 -2 -1654 7 -17 13 -22 72 -8 94 7 13 3301 16 3308 4z m-135 -765 c-4
-545 -3 -529 -73 -668 -94 -183 -267 -314 -467 -354 -116 -24 -1841 -24 -1956
0 -206 41 -383 179 -474 369 -65 136 -68 163 -68 683 l0 462 1521 0 1520 0 -3
-492z m-3352 290 l154 -71 0 -64 c0 -34 -3 -63 -7 -63 -5 0 -87 38 -183 83
l-175 83 -3 36 c-2 28 2 40 20 52 12 9 26 16 31 16 5 0 78 -32 163 -72z m3862
56 c18 -12 22 -24 20 -52 l-3 -36 -175 -83 c-96 -45 -178 -83 -182 -83 -5 0
-8 29 -8 63 l0 64 153 71 c83 39 157 71 162 72 6 0 21 -7 33 -16z"/>
<path d="M1145 1595 c-23 -23 -25 -31 -25 -130 0 -99 2 -107 25 -130 15 -16
36 -25 55 -25 19 0 40 9 55 25 23 23 25 31 25 130 0 99 -2 107 -25 130 -15 16
-36 25 -55 25 -19 0 -40 -9 -55 -25z"/>
<path d="M1140 1193 c-20 -25 -22 -36 -16 -98 16 -200 144 -389 324 -479 65
-33 190 -66 247 -66 60 0 95 29 95 80 0 45 -35 80 -81 80 -137 0 -294 91 -366
211 -35 59 -63 152 -63 210 0 54 -32 89 -80 89 -30 0 -43 -6 -60 -27z"/>
</g>
</svg>
